<svg width="48" height="48" viewBox="0 0 48 48" xmlns="http://www.w3.org/2000/svg"
    class="sc-eVspGN cbQFoe sc-jsTgWu bXhver">
    <path
        d="M38.975 10.813l-5.044 2.57L9.576 25.788a14.509 14.509 0 0121.459-14.542l2.887-1.471.43-.22A17.722 17.722 0 006.274 25.247a3.224 3.224 0 01-1.75 3.116L3 29.139v3.62l4.482-2.284 1.451-.74 1.43-.729 25.675-13.082 2.885-1.47 5.964-3.038V7.797l-5.912 3.016zm5.912 4.225L11.822 31.873l-2.885 1.473L3 36.371v3.617l5.896-3.004 5.043-2.57 24.38-12.422a14.509 14.509 0 01-21.48 14.553l-.177.094-3.13 1.595a17.722 17.722 0 0028.081-15.696 3.225 3.225 0 011.75-3.116l1.524-.776v-3.608z"
        fill="currentColor"></path>
</svg>